<svg xmlns="http://www.w3.org/2000/svg" xmlns:xlink="http://www.w3.org/1999/xlink" width="200" zoomAndPan="magnify" viewBox="0 0 150 149.999998" height="200" preserveAspectRatio="xMidYMid meet" version="1.2"><defs><clipPath id="009a5bdb7d"><path d="M 15 15 L 135 15 L 135 135 L 15 135 Z M 15 15 "/></clipPath></defs><g id="bd323249b9"><g clip-rule="nonzero" clip-path="url(#009a5bdb7d)"><path style=" stroke:none;fill-rule:evenodd;fill:#b76e79;fill-opacity:1;" d="M 50.5625 89.019531 L 35.5625 89.019531 C 34.015625 89.019531 32.746094 87.753906 32.746094 86.203125 L 32.746094 74.722656 L 20.984375 74.722656 C 19.4375 74.722656 18.167969 73.457031 18.167969 71.90625 L 18.167969 56.835938 C 18.167969 55.289062 19.4375 54.019531 20.984375 54.019531 L 32.746094 54.019531 L 32.746094 42.257812 C 32.746094 40.710938 34.015625 39.441406 35.5625 39.441406 L 50.5625 39.441406 C 52.113281 39.441406 53.378906 40.710938 53.378906 42.257812 L 53.378906 54.019531 L 64.929688 54.019531 C 66.480469 54.019531 67.746094 55.289062 67.746094 56.835938 L 67.746094 71.90625 C 67.746094 73.457031 66.480469 74.722656 64.929688 74.722656 L 53.378906 74.722656 L 53.378906 86.203125 C 53.378906 87.753906 52.113281 89.019531 50.5625 89.019531 Z M 79.015625 135.289062 C 54.929688 135.289062 45.070312 112.539062 39.015625 116.976562 C 33.097656 121.273438 36.550781 125.78125 34.648438 128.175781 C 34.226562 128.738281 33.519531 129.160156 32.746094 129.230469 C 32.183594 129.230469 18.449219 130.5 15.210938 120.710938 C 15.070312 120.21875 15 119.652344 15.140625 119.160156 C 18.027344 106.835938 23.308594 99.371094 31.125 96.34375 C 45.140625 90.921875 62.746094 101.625 71.195312 94.441406 C 75.351562 90.921875 77.394531 83.175781 77.535156 70.640625 C 77.605469 63.386719 74.507812 57.683594 71.195312 51.554688 C 66.550781 42.753906 61.125 32.824219 65.210938 17.117188 C 65.5625 15.921875 66.691406 15.003906 67.957031 15.003906 L 81.832031 15.003906 C 83.449219 15.003906 84.789062 16.484375 84.648438 18.175781 C 84.15625 21.835938 83.730469 31.203125 86.125 37.257812 C 102.675781 20.992188 120.351562 33.597656 128.804688 53.316406 C 133.238281 63.527344 135 75.003906 133.730469 84.792969 C 133.519531 92.117188 131.125 99.722656 126.691406 106.765625 C 116.761719 122.894531 97.394531 135.289062 79.015625 135.289062 Z M 40.703125 110.710938 C 49.367188 110.710938 55.914062 124.160156 70.140625 128.386719 C 81.125 131.695312 94.859375 128.457031 106.972656 119.652344 C 119.648438 110.5 127.746094 96.976562 128.097656 84.511719 C 128.097656 84.441406 128.097656 84.300781 128.097656 84.230469 C 129.296875 75.359375 127.675781 64.933594 123.660156 55.5 C 119.648438 46.203125 113.875 39.371094 107.816406 36.695312 C 100.914062 33.667969 94.226562 36.0625 87.746094 43.808594 C 86.550781 45.21875 84.4375 45.144531 83.378906 43.738281 C 78.449219 37.46875 78.378906 26.203125 78.730469 20.640625 L 70.210938 20.640625 C 65.492188 42.894531 83.449219 51.132812 83.238281 70.710938 C 82.605469 121.132812 50.492188 94.933594 33.238281 101.625 C 27.394531 103.808594 23.378906 109.722656 20.914062 119.582031 C 22.464844 122.683594 26.761719 123.457031 29.648438 123.597656 C 30.070312 115.640625 36.054688 110.710938 40.703125 110.710938 Z M 77.746094 119.863281 C 75.070312 119.863281 72.394531 119.511719 70 118.738281 C 66.410156 117.683594 68.027344 112.328125 71.550781 113.386719 C 79.859375 115.78125 90.351562 112.964844 99.085938 106.132812 C 102.042969 103.808594 105.5625 108.246094 102.605469 110.570312 C 94.929688 116.554688 85.984375 119.863281 77.746094 119.863281 Z M 38.378906 83.386719 L 47.746094 83.386719 L 47.746094 71.90625 C 47.746094 70.359375 49.015625 69.089844 50.5625 69.089844 L 62.113281 69.089844 L 62.113281 59.652344 L 50.5625 59.652344 C 49.015625 59.652344 47.746094 58.386719 47.746094 56.835938 L 47.746094 45.074219 L 38.378906 45.074219 L 38.378906 56.835938 C 38.378906 58.386719 37.113281 59.652344 35.5625 59.652344 L 23.804688 59.652344 L 23.804688 69.089844 L 35.5625 69.089844 C 37.113281 69.089844 38.378906 70.359375 38.378906 71.90625 Z M 38.378906 83.386719 "/></g></g></svg>