<svg xmlns="http://www.w3.org/2000/svg" xmlns:xlink="http://www.w3.org/1999/xlink" width="200" zoomAndPan="magnify" viewBox="0 0 150 157.92" height="200" preserveAspectRatio="xMidYMid meet" version="1.2"><defs><clipPath id="b1b1a6d259"><path d="M 20.503906 73 L 68 73 L 68 94 L 20.503906 94 Z M 20.503906 73 "/></clipPath><clipPath id="d3050826e5"><path d="M 28 15 L 129.199219 15 L 129.199219 133 L 28 133 Z M 28 15 "/></clipPath><clipPath id="b5bee3da1e"><path d="M 31 125 L 36 125 L 36 134.933594 L 31 134.933594 Z M 31 125 "/></clipPath></defs><g id="7c8cd9816c"><g clip-rule="nonzero" clip-path="url(#b1b1a6d259)"><path style=" stroke:none;fill-rule:nonzero;fill:#b76e79;fill-opacity:1;" d="M 47.089844 93.664062 L 45.980469 91.980469 C 40.300781 83.375 30.777344 78.234375 20.5 78.234375 L 20.5 73.875 C 31.585938 73.875 41.90625 79.105469 48.484375 87.960938 C 53.851562 85.308594 60.089844 83.566406 66.65625 82.902344 L 67.09375 87.242188 C 60.382812 87.917969 54.078125 89.804688 48.851562 92.6875 Z M 47.089844 93.664062 "/></g><path style=" stroke:none;fill-rule:nonzero;fill:#b76e79;fill-opacity:1;" d="M 98.683594 95.152344 L 98.421875 94.96875 C 94.496094 92.191406 91.109375 89.792969 85.894531 88.507812 L 86.9375 84.273438 C 92.953125 85.757812 96.832031 88.503906 100.941406 91.410156 L 101.199219 91.589844 L 98.683594 95.148438 Z M 98.683594 95.152344 "/><g clip-rule="nonzero" clip-path="url(#d3050826e5)"><path style=" stroke:none;fill-rule:nonzero;fill:#b76e79;fill-opacity:1;" d="M 61.910156 132.726562 C 48.722656 132.726562 36.488281 129.910156 28.347656 124.996094 L 30.597656 121.261719 C 38.082031 125.777344 49.496094 128.367188 61.910156 128.367188 C 73.261719 128.367188 79.640625 126.328125 85.269531 124.53125 C 89.613281 123.144531 93.722656 121.828125 99.152344 121.828125 C 103.75 121.828125 106.882812 122.625 110.839844 123.636719 C 111.84375 123.890625 112.785156 124.007812 113.730469 124.007812 C 120.011719 124.007812 125.121094 118.898438 125.121094 112.617188 L 125.121094 38.832031 C 125.121094 36.835938 124.226562 34.976562 122.664062 33.722656 L 106.292969 20.632812 C 103.933594 18.742188 100.195312 19.160156 98.300781 21.519531 L 94.390625 26.414062 C 93.121094 27.996094 92.421875 29.984375 92.421875 32.011719 C 92.421875 33.394531 92.753906 34.785156 93.367188 36.023438 L 94.886719 39.046875 C 95.660156 40.601562 97.433594 41.441406 99.132812 41.101562 L 113.5 38.09375 L 114.394531 42.359375 L 100.023438 45.367188 C 96.382812 46.132812 92.640625 44.304688 90.984375 40.996094 L 89.46875 37.96875 C 88.546875 36.128906 88.0625 34.070312 88.0625 32.011719 C 88.0625 28.996094 89.097656 26.042969 90.980469 23.691406 L 94.894531 18.796875 C 96.8125 16.402344 99.671875 15.027344 102.738281 15.027344 C 105.011719 15.027344 107.238281 15.808594 109.015625 17.230469 L 125.386719 30.324219 C 127.984375 32.40625 129.472656 35.507812 129.472656 38.835938 L 129.472656 112.621094 C 129.472656 121.304688 122.410156 128.371094 113.726562 128.371094 C 112.417969 128.371094 111.117188 128.207031 109.851562 127.886719 C 105.808594 126.859375 103.199219 126.191406 99.148438 126.191406 C 94.398438 126.191406 90.78125 127.347656 86.589844 128.6875 C 80.957031 130.488281 73.941406 132.730469 61.90625 132.730469 Z M 61.910156 132.726562 "/></g><path style=" stroke:none;fill-rule:nonzero;fill:#b76e79;fill-opacity:1;" d="M 101.144531 106.570312 L 96.785156 106.570312 L 96.785156 101.046875 C 96.785156 95.027344 98.515625 90.027344 100.519531 84.238281 C 103.710938 75.015625 107.683594 63.535156 107.683594 41.082031 L 112.042969 41.082031 C 112.042969 64.269531 107.765625 76.636719 104.640625 85.664062 C 102.683594 91.304688 101.144531 95.761719 101.144531 101.046875 Z M 101.144531 106.570312 "/><g clip-rule="nonzero" clip-path="url(#b5bee3da1e)"><path style=" stroke:none;fill-rule:nonzero;fill:#b76e79;fill-opacity:1;" d="M 31.394531 125.261719 L 35.753906 125.261719 L 35.753906 134.90625 L 31.394531 134.90625 Z M 31.394531 125.261719 "/></g><path style=" stroke:none;fill-rule:nonzero;fill:#b76e79;fill-opacity:1;" d="M 39.476562 39.265625 L 42.558594 36.183594 L 49.371094 42.992188 L 46.289062 46.074219 Z M 39.476562 39.265625 "/><path style=" stroke:none;fill-rule:nonzero;fill:#b76e79;fill-opacity:1;" d="M 64.089844 28.105469 L 68.449219 28.105469 L 68.449219 36.824219 L 64.089844 36.824219 Z M 64.089844 28.105469 "/><path style=" stroke:none;fill-rule:nonzero;fill:#b76e79;fill-opacity:1;" d="M 31.394531 60.800781 L 40.113281 60.800781 L 40.113281 65.15625 L 31.394531 65.15625 Z M 31.394531 60.800781 "/><path style=" stroke:none;fill-rule:nonzero;fill:#b76e79;fill-opacity:1;" d="M 66.269531 102.210938 C 63.867188 102.210938 61.910156 100.253906 61.910156 97.851562 C 61.910156 97.546875 61.945312 97.234375 62.007812 96.925781 L 65.675781 80.414062 L 53.191406 80.414062 C 50.789062 80.414062 48.832031 78.460938 48.832031 76.058594 C 48.832031 75.140625 49.144531 74.242188 49.742188 73.453125 L 71.566406 45.082031 C 72.414062 43.988281 73.660156 43.363281 74.988281 43.363281 C 77.390625 43.363281 79.347656 45.320312 79.347656 47.722656 C 79.347656 48.027344 79.316406 48.339844 79.25 48.648438 L 75.582031 65.15625 L 88.066406 65.15625 C 90.46875 65.15625 92.425781 67.113281 92.425781 69.515625 C 92.425781 70.433594 92.113281 71.332031 91.515625 72.121094 L 69.691406 100.492188 C 68.847656 101.585938 67.601562 102.210938 66.269531 102.210938 Z M 68.394531 76.058594 L 71.113281 76.058594 L 66.269531 97.851562 L 88.019531 69.515625 L 70.144531 69.515625 L 74.988281 47.722656 L 53.207031 76.09375 Z M 68.394531 76.058594 "/></g></svg>