<svg xmlns="http://www.w3.org/2000/svg" xmlns:xlink="http://www.w3.org/1999/xlink" width="200" zoomAndPan="magnify" viewBox="0 0 150 157.92" height="200" preserveAspectRatio="xMidYMid meet" version="1.2"><defs><clipPath id="caa40b8a01"><path d="M 15.03125 19 L 134.96875 19 L 134.96875 130.660156 L 15.03125 130.660156 Z M 15.03125 19 "/></clipPath></defs><g id="ed11add9d2"><g clip-rule="nonzero" clip-path="url(#caa40b8a01)"><path style=" stroke:none;fill-rule:evenodd;fill:#b76e79;fill-opacity:1;" d="M 128.816406 97.070312 C 127.25 95.972656 125.921875 94.496094 124.929688 92.765625 C 123.9375 94.496094 122.609375 95.972656 121.046875 97.070312 C 122.609375 98.167969 123.9375 99.644531 124.929688 101.375 C 125.921875 99.644531 127.25 98.167969 128.816406 97.070312 Z M 134.882812 97.070312 C 134.882812 97.898438 134.320312 98.625 133.511719 98.828125 C 130.015625 99.714844 127.289062 103.0625 126.726562 107.175781 C 126.605469 108.074219 125.835938 108.746094 124.929688 108.746094 C 124.023438 108.746094 123.253906 108.074219 123.132812 107.175781 C 122.574219 103.0625 119.84375 99.714844 116.351562 98.828125 C 115.546875 98.625 114.976562 97.898438 114.976562 97.070312 C 114.976562 96.238281 115.546875 95.515625 116.351562 95.3125 C 119.84375 94.429688 122.574219 91.074219 123.132812 86.96875 C 123.253906 86.066406 124.023438 85.398438 124.929688 85.398438 C 125.835938 85.398438 126.605469 86.066406 126.726562 86.96875 C 127.289062 91.078125 130.015625 94.429688 133.511719 95.3125 C 134.320312 95.515625 134.882812 96.238281 134.882812 97.070312 Z M 21.210938 36.132812 C 22.773438 37.230469 24.105469 38.707031 25.097656 40.4375 C 26.089844 38.707031 27.421875 37.230469 28.984375 36.132812 C 27.421875 35.035156 26.089844 33.558594 25.097656 31.828125 C 24.105469 33.558594 22.773438 35.035156 21.210938 36.132812 Z M 16.519531 37.890625 C 15.710938 37.6875 15.148438 36.964844 15.148438 36.132812 C 15.148438 35.300781 15.710938 34.578125 16.519531 34.375 C 20.011719 33.492188 22.738281 30.136719 23.300781 26.027344 C 23.421875 25.132812 24.191406 24.460938 25.097656 24.460938 C 26.003906 24.460938 26.769531 25.132812 26.894531 26.027344 C 27.457031 30.136719 30.183594 33.492188 33.675781 34.375 C 34.484375 34.578125 35.046875 35.300781 35.046875 36.132812 C 35.046875 36.964844 34.484375 37.6875 33.675781 37.890625 C 30.183594 38.773438 27.457031 42.125 26.894531 46.238281 C 26.769531 47.136719 26.003906 47.804688 25.097656 47.804688 C 24.191406 47.804688 23.425781 47.136719 23.300781 46.238281 C 22.738281 42.125 20.011719 38.773438 16.519531 37.890625 Z M 68.675781 108.023438 C 68.011719 108.773438 68.085938 109.921875 68.839844 110.582031 C 70.609375 112.136719 72.828125 112.910156 75.042969 112.910156 C 77.265625 112.910156 79.484375 112.136719 81.25 110.582031 C 82.003906 109.921875 82.078125 108.777344 81.417969 108.023438 C 80.753906 107.269531 79.609375 107.195312 78.855469 107.855469 C 76.683594 109.761719 73.40625 109.761719 71.234375 107.855469 C 70.480469 107.195312 69.332031 107.269531 68.675781 108.023438 Z M 80.140625 90.691406 C 81.910156 92.246094 84.128906 93.023438 86.347656 93.023438 C 88.5625 93.023438 90.78125 92.246094 92.550781 90.691406 C 93.304688 90.03125 93.382812 88.886719 92.722656 88.132812 C 92.058594 87.378906 90.914062 87.304688 90.160156 87.96875 C 87.988281 89.871094 84.707031 89.871094 82.535156 87.96875 C 81.78125 87.308594 80.636719 87.378906 79.976562 88.132812 C 79.3125 88.886719 79.390625 90.03125 80.140625 90.691406 Z M 69.949219 90.691406 C 70.703125 90.03125 70.777344 88.886719 70.117188 88.132812 C 69.457031 87.378906 68.308594 87.304688 67.554688 87.96875 C 65.382812 89.871094 62.105469 89.871094 59.933594 87.96875 C 59.175781 87.308594 58.03125 87.378906 57.371094 88.132812 C 56.710938 88.886719 56.785156 90.03125 57.535156 90.691406 C 59.308594 92.246094 61.527344 93.023438 63.746094 93.023438 C 65.964844 93.023438 68.179688 92.246094 69.949219 90.691406 Z M 60.890625 113.265625 C 57.605469 111.460938 55.011719 110.039062 54.527344 108.59375 L 49.695312 94.164062 C 51.972656 82.3125 57.886719 74.882812 67.757812 71.472656 C 67.785156 71.460938 67.8125 71.453125 67.839844 71.445312 C 72.449219 69.601562 76.234375 67.328125 79.199219 64.648438 C 82.878906 67.988281 85.523438 69.554688 87.691406 70.839844 C 92.390625 73.625 94.363281 74.796875 100.746094 94.164062 L 95.574219 108.558594 C 95.042969 110.039062 92.398438 111.5 89.050781 113.34375 C 88.347656 113.734375 87.613281 114.140625 86.84375 114.574219 C 84.007812 116.171875 81.148438 117.835938 78.386719 119.441406 L 76.648438 120.453125 C 75.613281 121.054688 74.472656 121.054688 73.441406 120.453125 L 71.707031 119.445312 C 68.941406 117.835938 66.085938 116.175781 63.25 114.574219 C 62.425781 114.105469 61.636719 113.675781 60.890625 113.265625 Z M 47.238281 88.90625 C 43.351562 78.855469 44.957031 67.46875 51.773438 58.769531 C 54.832031 54.859375 58.675781 51.84375 62.945312 49.828125 C 63.140625 49.777344 63.320312 49.6875 63.488281 49.578125 C 67.410156 47.820312 71.679688 46.898438 76.027344 46.898438 C 78.5 46.898438 80.992188 47.195312 83.46875 47.804688 C 83.210938 52.898438 81.40625 57.195312 78.015625 60.761719 C 77.964844 60.808594 77.914062 60.847656 77.867188 60.898438 C 77.824219 60.949219 77.78125 61 77.742188 61.050781 C 75 63.832031 71.273438 66.15625 66.53125 68.058594 C 56.847656 71.417969 50.375 78.421875 47.238281 88.90625 Z M 64.546875 45.285156 C 64.878906 45.164062 65.210938 45.050781 65.550781 44.941406 C 72.152344 42.820312 79.15625 42.730469 85.8125 44.679688 C 85.8125 44.679688 85.816406 44.679688 85.820312 44.679688 C 85.820312 44.683594 85.824219 44.683594 85.828125 44.683594 C 85.828125 44.683594 85.832031 44.6875 85.839844 44.6875 C 85.855469 44.691406 85.871094 44.699219 85.890625 44.703125 L 85.753906 43.234375 C 85.480469 40.300781 83.058594 38.089844 80.113281 38.089844 L 70.375 38.089844 C 67.429688 38.089844 65 40.300781 64.734375 43.234375 Z M 87.003906 49.167969 C 94.378906 52.847656 100.121094 59.246094 102.957031 67.050781 C 105.570312 74.246094 105.523438 82.113281 102.914062 89.21875 C 100.328125 81.675781 98.417969 77.183594 96.570312 74.199219 C 94.308594 70.542969 92.207031 69.300781 89.542969 67.71875 C 87.539062 66.53125 85.097656 65.082031 81.722656 62.039062 C 84.777344 58.382812 86.542969 54.082031 87.003906 49.167969 Z M 59.148438 116.445312 C 55.011719 114.175781 52.023438 112.535156 51.089844 109.746094 L 46.15625 95.023438 C 42.734375 89.070312 41.175781 82.308594 41.648438 75.457031 C 42.125 68.535156 44.636719 61.988281 48.917969 56.53125 C 52.121094 52.4375 56.152344 49.160156 60.753906 46.882812 L 61.121094 42.90625 C 61.5625 38.089844 65.542969 34.464844 70.375 34.464844 L 80.113281 34.464844 C 84.945312 34.464844 88.925781 38.089844 89.367188 42.90625 L 89.695312 46.484375 C 97.382812 50.648438 103.351562 57.515625 106.363281 65.8125 C 109.832031 75.351562 109.089844 85.949219 104.332031 94.917969 L 98.988281 109.785156 C 97.992188 112.554688 94.976562 114.21875 90.800781 116.523438 C 90.109375 116.902344 89.386719 117.304688 88.625 117.734375 C 85.8125 119.324219 82.964844 120.976562 80.214844 122.578125 L 78.472656 123.589844 C 77.398438 124.214844 76.21875 124.523438 75.042969 124.523438 C 73.867188 124.523438 72.691406 124.214844 71.617188 123.589844 L 69.882812 122.582031 C 67.128906 120.980469 64.28125 119.324219 61.464844 117.734375 C 60.65625 117.277344 59.878906 116.851562 59.148438 116.445312 Z M 120.582031 106.261719 L 120.578125 106.257812 C 120.578125 106.257812 120.578125 106.257812 120.578125 106.253906 C 120.488281 105.824219 120.238281 105.429688 119.855469 105.15625 C 119.851562 105.15625 119.851562 105.15625 119.851562 105.15625 C 119.472656 104.886719 119.027344 104.785156 118.59375 104.835938 C 118.589844 104.835938 118.589844 104.835938 118.589844 104.835938 C 118.539062 104.84375 118.488281 104.851562 118.4375 104.859375 C 118.4375 104.863281 118.433594 104.863281 118.433594 104.863281 C 118.421875 104.863281 118.414062 104.867188 118.402344 104.871094 L 110.007812 106.75 C 109.03125 106.972656 108.417969 107.941406 108.636719 108.917969 C 108.855469 109.894531 109.828125 110.511719 110.804688 110.292969 L 114.242188 109.519531 C 113.460938 110.421875 112.648438 111.292969 111.8125 112.128906 C 97.042969 126.898438 74.382812 130.9375 55.429688 122.183594 C 54.519531 121.761719 53.441406 122.15625 53.019531 123.066406 C 52.601562 123.976562 52.996094 125.054688 53.90625 125.472656 C 61.003906 128.753906 68.636719 130.421875 76.367188 130.421875 C 79.386719 130.421875 82.421875 130.164062 85.445312 129.652344 C 96.453125 127.789062 106.457031 122.613281 114.378906 114.695312 C 115.222656 113.851562 116.039062 112.972656 116.828125 112.074219 L 116.738281 115.1875 C 116.707031 116.1875 117.496094 117.023438 118.5 117.054688 C 119.507812 117.078125 120.335938 116.296875 120.367188 115.292969 L 120.617188 106.71875 C 120.621094 106.617188 120.617188 106.511719 120.605469 106.40625 C 120.597656 106.359375 120.589844 106.3125 120.582031 106.261719 Z M 47.585938 35.851562 C 45.257812 37.496094 43.058594 39.347656 41.046875 41.363281 C 27.460938 54.949219 22.957031 75.203125 29.132812 93.113281 L 30.183594 89.75 C 30.480469 88.792969 31.496094 88.261719 32.457031 88.558594 C 33.410156 88.859375 33.945312 89.875 33.644531 90.832031 L 31.082031 99.039062 C 30.941406 99.5 30.617188 99.902344 30.15625 100.128906 C 30.128906 100.140625 30.101562 100.15625 30.074219 100.167969 C 29.835938 100.273438 29.589844 100.320312 29.347656 100.320312 C 29.167969 100.320312 28.992188 100.296875 28.816406 100.242188 C 28.816406 100.242188 28.816406 100.242188 28.816406 100.238281 C 28.753906 100.222656 28.6875 100.199219 28.628906 100.171875 L 28.625 100.171875 C 28.539062 100.132812 28.453125 100.085938 28.371094 100.035156 L 21.070312 95.527344 C 20.21875 95.003906 19.953125 93.882812 20.480469 93.03125 C 21.003906 92.179688 22.125 91.917969 22.976562 92.441406 L 25.621094 94.074219 C 22.738281 85.636719 22.007812 76.632812 23.519531 67.726562 C 25.386719 56.722656 30.558594 46.71875 38.480469 38.796875 C 40.640625 36.640625 42.996094 34.652344 45.488281 32.886719 C 46.308594 32.308594 47.441406 32.503906 48.019531 33.320312 C 48.597656 34.136719 48.40625 35.269531 47.585938 35.851562 Z M 79.582031 26.058594 C 79.640625 26.15625 79.714844 26.25 79.792969 26.335938 L 85.625 32.667969 C 86.304688 33.402344 87.453125 33.453125 88.191406 32.769531 C 88.925781 32.09375 88.972656 30.945312 88.292969 30.210938 L 85.898438 27.609375 C 107.597656 31.757812 124.234375 49.808594 126.261719 72.210938 C 126.34375 73.152344 127.136719 73.863281 128.066406 73.863281 C 128.121094 73.863281 128.171875 73.859375 128.230469 73.855469 C 129.226562 73.761719 129.964844 72.882812 129.875 71.882812 C 127.707031 47.945312 109.988281 28.632812 86.835938 24.09375 L 89.566406 22.621094 C 90.449219 22.148438 90.777344 21.046875 90.304688 20.164062 C 89.828125 19.285156 88.726562 18.953125 87.847656 19.429688 L 80.289062 23.5 C 80.246094 23.523438 80.207031 23.542969 80.167969 23.570312 C 80.015625 23.660156 79.882812 23.777344 79.761719 23.910156 C 79.558594 24.148438 79.40625 24.441406 79.347656 24.765625 C 79.347656 24.769531 79.347656 24.769531 79.347656 24.769531 C 79.34375 24.78125 79.339844 24.792969 79.339844 24.808594 C 79.320312 24.914062 79.3125 25.019531 79.3125 25.128906 C 79.316406 25.464844 79.414062 25.785156 79.582031 26.058594 Z M 79.582031 26.058594 "/></g></g></svg>