<svg xmlns="http://www.w3.org/2000/svg" xmlns:xlink="http://www.w3.org/1999/xlink" width="200" zoomAndPan="magnify" viewBox="0 0 150 157.92" height="200" preserveAspectRatio="xMidYMid meet" version="1.2"><defs><clipPath id="046e7bba49"><path d="M 44 14.992188 L 65 14.992188 L 65 35 L 44 35 Z M 44 14.992188 "/></clipPath><clipPath id="f9a0953c93"><path d="M 16.003906 32 L 37 32 L 37 53 L 16.003906 53 Z M 16.003906 32 "/></clipPath><clipPath id="fef716978f"><path d="M 60 98 L 96 98 L 96 134.933594 L 60 134.933594 Z M 60 98 "/></clipPath><clipPath id="65c7cc428e"><path d="M 97 74 L 133.695312 74 L 133.695312 111 L 97 111 Z M 97 74 "/></clipPath></defs><g id="5437f0eafe"><path style=" stroke:none;fill-rule:nonzero;fill:#b76e79;fill-opacity:1;" d="M 54.011719 82.960938 C 39.683594 82.960938 28.023438 71.300781 28.023438 56.972656 C 28.023438 42.644531 39.683594 30.984375 54.011719 30.984375 C 68.339844 30.984375 80 42.644531 80 56.972656 C 80 71.300781 68.339844 82.960938 54.011719 82.960938 Z M 54.011719 34.980469 C 41.886719 34.980469 32.019531 44.847656 32.019531 56.972656 C 32.019531 69.097656 41.886719 78.960938 54.011719 78.960938 C 66.136719 78.960938 76 69.097656 76 56.972656 C 76 44.847656 66.136719 34.980469 54.011719 34.980469 Z M 54.011719 34.980469 "/><path style=" stroke:none;fill-rule:nonzero;fill:#b76e79;fill-opacity:1;" d="M 50.4375 45.515625 L 49.257812 41.699219 C 50.792969 41.222656 52.390625 40.976562 54.007812 40.976562 L 54.007812 44.976562 C 52.792969 44.976562 51.59375 45.15625 50.4375 45.515625 Z M 50.4375 45.515625 "/><path style=" stroke:none;fill-rule:nonzero;fill:#b76e79;fill-opacity:1;" d="M 42.015625 56.972656 L 38.019531 56.972656 C 38.019531 51.890625 40.355469 47.222656 44.425781 44.167969 L 46.824219 47.367188 C 43.769531 49.65625 42.015625 53.160156 42.015625 56.972656 Z M 42.015625 56.972656 "/><g clip-rule="nonzero" clip-path="url(#046e7bba49)"><path style=" stroke:none;fill-rule:nonzero;fill:#b76e79;fill-opacity:1;" d="M 54.011719 34.980469 C 48.5 34.980469 44.015625 30.496094 44.015625 24.984375 C 44.015625 19.476562 48.5 14.992188 54.011719 14.992188 C 59.523438 14.992188 64.007812 19.476562 64.007812 24.988281 C 64.007812 30.5 59.523438 34.984375 54.011719 34.984375 Z M 54.011719 18.992188 C 50.703125 18.992188 48.011719 21.679688 48.011719 24.988281 C 48.011719 28.296875 50.703125 30.988281 54.011719 30.988281 C 57.320312 30.988281 60.007812 28.296875 60.007812 24.988281 C 60.007812 21.679688 57.320312 18.992188 54.011719 18.992188 Z M 54.011719 18.992188 "/></g><g clip-rule="nonzero" clip-path="url(#f9a0953c93)"><path style=" stroke:none;fill-rule:nonzero;fill:#b76e79;fill-opacity:1;" d="M 26.023438 52.972656 C 20.511719 52.972656 16.027344 48.488281 16.027344 42.976562 C 16.027344 37.464844 20.511719 32.980469 26.023438 32.980469 C 31.535156 32.980469 36.019531 37.464844 36.019531 42.976562 C 36.019531 43.3125 36.003906 43.636719 35.972656 43.960938 L 31.992188 43.570312 C 32.011719 43.375 32.019531 43.175781 32.019531 42.976562 C 32.019531 39.667969 29.332031 36.976562 26.023438 36.976562 C 22.714844 36.976562 20.023438 39.667969 20.023438 42.976562 C 20.023438 46.285156 22.714844 48.972656 26.023438 48.972656 C 27.527344 48.972656 28.964844 48.414062 30.070312 47.398438 L 32.773438 50.347656 C 30.925781 52.039062 28.53125 52.972656 26.023438 52.972656 Z M 26.023438 52.972656 "/></g><path style=" stroke:none;fill-rule:nonzero;fill:#b76e79;fill-opacity:1;" d="M 81.996094 52.972656 C 79.496094 52.972656 77.105469 52.046875 75.261719 50.363281 L 77.953125 47.410156 C 79.0625 48.417969 80.496094 48.972656 81.996094 48.972656 C 85.304688 48.972656 87.996094 46.285156 87.996094 42.976562 C 87.996094 39.667969 85.304688 36.976562 81.996094 36.976562 C 78.6875 36.976562 76 39.667969 76 42.976562 C 76 43.175781 76.007812 43.375 76.027344 43.570312 L 72.046875 43.960938 C 72.015625 43.636719 72 43.308594 72 42.976562 C 72 37.464844 76.484375 32.980469 81.996094 32.980469 C 87.507812 32.980469 91.992188 37.464844 91.992188 42.976562 C 91.992188 48.488281 87.507812 52.972656 81.996094 52.972656 Z M 81.996094 52.972656 "/><path style=" stroke:none;fill-rule:nonzero;fill:#b76e79;fill-opacity:1;" d="M 36.019531 92.957031 C 30.507812 92.957031 26.023438 88.472656 26.023438 82.960938 C 26.023438 77.449219 30.507812 72.964844 36.019531 72.964844 C 37.152344 72.964844 38.265625 73.152344 39.332031 73.527344 L 38.007812 77.296875 C 37.371094 77.074219 36.699219 76.960938 36.019531 76.960938 C 32.710938 76.960938 30.019531 79.648438 30.019531 82.957031 C 30.019531 86.265625 32.710938 88.957031 36.019531 88.957031 C 39.328125 88.957031 42.015625 86.265625 42.015625 82.957031 C 42.015625 81.546875 41.519531 80.175781 40.605469 79.09375 L 43.664062 76.519531 C 45.179688 78.320312 46.015625 80.605469 46.015625 82.957031 C 46.015625 88.46875 41.53125 92.953125 36.019531 92.953125 Z M 36.019531 92.957031 "/><path style=" stroke:none;fill-rule:nonzero;fill:#b76e79;fill-opacity:1;" d="M 72.003906 92.957031 C 66.492188 92.957031 62.007812 88.472656 62.007812 82.960938 C 62.007812 80.613281 62.835938 78.335938 64.339844 76.542969 L 67.402344 79.113281 C 66.5 80.1875 66.003906 81.554688 66.003906 82.960938 C 66.003906 86.269531 68.695312 88.960938 72.003906 88.960938 C 75.308594 88.960938 78 86.269531 78 82.960938 C 78 79.65625 75.308594 76.964844 72.003906 76.964844 C 71.320312 76.964844 70.648438 77.078125 70.015625 77.300781 L 68.6875 73.53125 C 69.75 73.15625 70.867188 72.964844 72.003906 72.964844 C 77.515625 72.964844 82 77.449219 82 82.960938 C 82 88.472656 77.515625 92.957031 72.003906 92.957031 Z M 72.003906 92.957031 "/><path style=" stroke:none;fill-rule:nonzero;fill:#b76e79;fill-opacity:1;" d="M 78 126.941406 C 72.488281 126.941406 68.003906 122.457031 68.003906 116.945312 L 72 116.945312 C 72 120.25 74.691406 122.941406 78 122.941406 Z M 78 126.941406 "/><g clip-rule="nonzero" clip-path="url(#fef716978f)"><path style=" stroke:none;fill-rule:nonzero;fill:#b76e79;fill-opacity:1;" d="M 78 134.9375 C 68.078125 134.9375 60.007812 126.863281 60.007812 116.945312 C 60.007812 107.023438 68.078125 98.953125 78 98.953125 C 87.917969 98.953125 95.992188 107.023438 95.992188 116.945312 C 95.992188 126.863281 87.917969 134.9375 78 134.9375 Z M 78 102.949219 C 70.285156 102.949219 64.003906 109.230469 64.003906 116.945312 C 64.003906 124.660156 70.285156 130.9375 78 130.9375 C 85.714844 130.9375 91.992188 124.660156 91.992188 116.945312 C 91.992188 109.230469 85.714844 102.949219 78 102.949219 Z M 78 102.949219 "/></g><path style=" stroke:none;fill-rule:nonzero;fill:#b76e79;fill-opacity:1;" d="M 115.980469 102.953125 C 110.46875 102.953125 105.984375 98.46875 105.984375 92.957031 L 109.980469 92.957031 C 109.980469 96.265625 112.671875 98.953125 115.980469 98.953125 Z M 115.980469 102.953125 "/><g clip-rule="nonzero" clip-path="url(#65c7cc428e)"><path style=" stroke:none;fill-rule:nonzero;fill:#b76e79;fill-opacity:1;" d="M 115.980469 110.949219 C 106.058594 110.949219 97.988281 102.878906 97.988281 92.957031 C 97.988281 83.035156 106.058594 74.964844 115.980469 74.964844 C 125.902344 74.964844 133.972656 83.035156 133.972656 92.957031 C 133.972656 102.878906 125.902344 110.949219 115.980469 110.949219 Z M 115.980469 78.960938 C 108.265625 78.960938 101.988281 85.242188 101.988281 92.957031 C 101.988281 100.671875 108.265625 106.949219 115.980469 106.949219 C 123.695312 106.949219 129.972656 100.671875 129.972656 92.957031 C 129.972656 85.242188 123.695312 78.960938 115.980469 78.960938 Z M 115.980469 78.960938 "/></g><path style=" stroke:none;fill-rule:nonzero;fill:#b76e79;fill-opacity:1;" d="M 74.667969 69.203125 L 76.53125 65.667969 L 104.914062 80.625 L 103.050781 84.164062 Z M 74.667969 69.203125 "/><path style=" stroke:none;fill-rule:nonzero;fill:#b76e79;fill-opacity:1;" d="M 91.183594 107.964844 L 102.316406 101.089844 L 104.417969 104.488281 L 93.285156 111.367188 Z M 91.183594 107.964844 "/><path style=" stroke:none;fill-rule:nonzero;fill:#b76e79;fill-opacity:1;" d="M 113.984375 22.988281 L 109.984375 22.988281 L 109.984375 26.988281 L 113.984375 26.988281 Z M 113.984375 22.988281 "/><path style=" stroke:none;fill-rule:nonzero;fill:#b76e79;fill-opacity:1;" d="M 121.976562 26.988281 L 117.980469 26.988281 L 117.980469 30.984375 L 121.976562 30.984375 Z M 121.976562 26.988281 "/><path style=" stroke:none;fill-rule:nonzero;fill:#b76e79;fill-opacity:1;" d="M 101.988281 34.980469 L 97.992188 34.980469 L 97.992188 38.980469 L 101.988281 38.980469 Z M 101.988281 34.980469 "/><path style=" stroke:none;fill-rule:nonzero;fill:#b76e79;fill-opacity:1;" d="M 125.976562 34.980469 L 121.976562 34.980469 L 121.976562 38.980469 L 125.976562 38.980469 Z M 125.976562 34.980469 "/><path style=" stroke:none;fill-rule:nonzero;fill:#b76e79;fill-opacity:1;" d="M 113.984375 46.976562 L 109.984375 46.976562 L 109.984375 50.976562 L 113.984375 50.976562 Z M 113.984375 46.976562 "/><path style=" stroke:none;fill-rule:nonzero;fill:#b76e79;fill-opacity:1;" d="M 105.988281 42.980469 L 101.988281 42.980469 L 101.988281 46.976562 L 105.988281 46.976562 Z M 105.988281 42.980469 "/><path style=" stroke:none;fill-rule:nonzero;fill:#b76e79;fill-opacity:1;" d="M 121.976562 42.980469 L 117.980469 42.980469 L 117.980469 46.976562 L 121.976562 46.976562 Z M 121.976562 42.980469 "/><path style=" stroke:none;fill-rule:nonzero;fill:#b76e79;fill-opacity:1;" d="M 105.988281 26.988281 L 101.988281 26.988281 L 101.988281 30.984375 L 105.988281 30.984375 Z M 105.988281 26.988281 "/><path style=" stroke:none;fill-rule:nonzero;fill:#b76e79;fill-opacity:1;" d="M 40.015625 104.949219 L 36.019531 104.949219 L 36.019531 108.949219 L 40.015625 108.949219 Z M 40.015625 104.949219 "/><path style=" stroke:none;fill-rule:nonzero;fill:#b76e79;fill-opacity:1;" d="M 48.011719 108.949219 L 44.015625 108.949219 L 44.015625 112.945312 L 48.011719 112.945312 Z M 48.011719 108.949219 "/><path style=" stroke:none;fill-rule:nonzero;fill:#b76e79;fill-opacity:1;" d="M 28.023438 116.945312 L 24.023438 116.945312 L 24.023438 120.945312 L 28.023438 120.945312 Z M 28.023438 116.945312 "/><path style=" stroke:none;fill-rule:nonzero;fill:#b76e79;fill-opacity:1;" d="M 52.011719 116.945312 L 48.011719 116.945312 L 48.011719 120.945312 L 52.011719 120.945312 Z M 52.011719 116.945312 "/><path style=" stroke:none;fill-rule:nonzero;fill:#b76e79;fill-opacity:1;" d="M 40.015625 128.941406 L 36.019531 128.941406 L 36.019531 132.9375 L 40.015625 132.9375 Z M 40.015625 128.941406 "/><path style=" stroke:none;fill-rule:nonzero;fill:#b76e79;fill-opacity:1;" d="M 32.019531 124.941406 L 28.023438 124.941406 L 28.023438 128.941406 L 32.019531 128.941406 Z M 32.019531 124.941406 "/><path style=" stroke:none;fill-rule:nonzero;fill:#b76e79;fill-opacity:1;" d="M 48.011719 124.941406 L 44.015625 124.941406 L 44.015625 128.941406 L 48.011719 128.941406 Z M 48.011719 124.941406 "/><path style=" stroke:none;fill-rule:nonzero;fill:#b76e79;fill-opacity:1;" d="M 32.019531 108.949219 L 28.023438 108.949219 L 28.023438 112.945312 L 32.019531 112.945312 Z M 32.019531 108.949219 "/></g></svg>