<svg xmlns="http://www.w3.org/2000/svg" xmlns:xlink="http://www.w3.org/1999/xlink" width="200" zoomAndPan="magnify" viewBox="0 0 150 157.92" height="200" preserveAspectRatio="xMidYMid meet" version="1.2"><defs><clipPath id="54d7e0a0db"><path d="M 34 63 L 132 63 L 132 134.933594 L 34 134.933594 Z M 34 63 "/></clipPath></defs><g id="8698433b01"><path style=" stroke:none;fill-rule:nonzero;fill:#b76e79;fill-opacity:1;" d="M 90.046875 45.207031 C 83.691406 43.230469 79.207031 39.714844 76.578125 37.128906 C 75.757812 36.308594 74.453125 36.308594 73.632812 37.128906 C 71.003906 39.714844 66.519531 43.230469 60.164062 45.207031 C 55.597656 46.617188 50.675781 47.019531 45.941406 46.367188 C 45.308594 46.261719 44.71875 46.449219 44.257812 46.851562 C 43.792969 47.25 43.542969 47.839844 43.542969 48.449219 L 43.542969 73.636719 C 43.542969 93.289062 55.9375 111.070312 74.367188 117.910156 C 74.601562 117.992188 74.851562 118.035156 75.105469 118.035156 C 75.359375 118.035156 75.609375 117.992188 75.839844 117.910156 C 94.273438 111.070312 106.667969 93.289062 106.667969 73.636719 L 106.667969 48.449219 C 106.667969 47.839844 106.414062 47.25 105.953125 46.851562 C 105.488281 46.449219 104.902344 46.261719 104.269531 46.367188 C 99.535156 46.996094 94.609375 46.617188 90.046875 45.207031 Z M 55.808594 77.277344 C 55.808594 66.652344 64.480469 57.980469 75.105469 57.980469 C 85.730469 57.980469 94.402344 66.652344 94.402344 77.277344 C 94.402344 87.902344 85.730469 96.570312 75.105469 96.570312 C 64.480469 96.570312 55.808594 87.902344 55.808594 77.277344 Z M 55.808594 77.277344 "/><path style=" stroke:none;fill-rule:nonzero;fill:#b76e79;fill-opacity:1;" d="M 90.191406 77.277344 C 90.191406 68.964844 83.417969 62.191406 75.105469 62.191406 C 66.792969 62.191406 60.019531 68.964844 60.019531 77.277344 C 60.019531 85.589844 66.792969 92.363281 75.105469 92.363281 C 83.417969 92.363281 90.191406 85.589844 90.191406 77.277344 Z M 73 77.277344 L 73 69.574219 C 73 68.417969 73.949219 67.472656 75.105469 67.472656 C 76.261719 67.472656 77.210938 68.417969 77.210938 69.574219 L 77.210938 76.414062 L 81.269531 80.476562 C 82.089844 81.296875 82.089844 82.621094 81.269531 83.441406 C 80.871094 83.863281 80.324219 84.074219 79.796875 84.074219 C 79.273438 84.074219 78.703125 83.863281 78.304688 83.441406 L 73.609375 78.769531 C 73.234375 78.371094 73 77.84375 73 77.277344 Z M 73 77.277344 "/><path style=" stroke:none;fill-rule:nonzero;fill:#b76e79;fill-opacity:1;" d="M 37.902344 40.074219 C 57.261719 20.714844 88.046875 19.644531 108.6875 36.792969 L 104.730469 37.042969 C 103.574219 37.109375 102.691406 38.117188 102.777344 39.273438 C 102.839844 40.390625 103.765625 41.253906 104.878906 41.253906 C 104.921875 41.253906 104.964844 41.253906 105.003906 41.253906 L 113.90625 40.683594 C 114.011719 40.683594 114.097656 40.621094 114.203125 40.601562 C 114.347656 40.578125 114.496094 40.539062 114.621094 40.496094 C 114.769531 40.433594 114.875 40.328125 115 40.242188 C 115.085938 40.179688 115.167969 40.160156 115.253906 40.074219 C 115.253906 40.074219 115.253906 40.03125 115.296875 40.011719 C 115.402344 39.886719 115.484375 39.757812 115.546875 39.613281 C 115.609375 39.507812 115.675781 39.421875 115.714844 39.316406 C 115.757812 39.210938 115.757812 39.085938 115.78125 38.960938 C 115.800781 38.8125 115.84375 38.664062 115.84375 38.515625 C 115.84375 38.496094 115.84375 38.476562 115.84375 38.453125 L 115.273438 29.554688 C 115.210938 28.394531 114.179688 27.492188 113.042969 27.574219 C 111.886719 27.636719 111.003906 28.648438 111.085938 29.804688 L 111.320312 33.53125 C 89.054688 15.035156 55.832031 16.210938 34.9375 37.109375 C 21.132812 50.910156 15.429688 70.5625 19.660156 89.648438 C 19.871094 90.636719 20.753906 91.289062 21.722656 91.289062 C 21.867188 91.289062 22.039062 91.289062 22.183594 91.25 C 23.320312 90.996094 24.035156 89.878906 23.785156 88.746094 C 19.847656 71.070312 25.128906 52.890625 37.925781 40.09375 Z M 37.902344 40.074219 "/><g clip-rule="nonzero" clip-path="url(#54d7e0a0db)"><path style=" stroke:none;fill-rule:nonzero;fill:#b76e79;fill-opacity:1;" d="M 130.550781 64.925781 C 130.296875 63.789062 129.160156 63.074219 128.046875 63.324219 C 126.910156 63.578125 126.195312 64.695312 126.449219 65.828125 C 130.382812 83.503906 125.101562 101.683594 112.308594 114.480469 C 92.949219 133.835938 62.164062 134.910156 41.523438 117.761719 L 45.476562 117.507812 C 46.636719 117.445312 47.519531 116.4375 47.433594 115.277344 C 47.351562 114.121094 46.339844 113.214844 45.203125 113.300781 L 36.304688 113.867188 C 36.199219 113.867188 36.113281 113.933594 36.007812 113.953125 C 35.863281 113.972656 35.714844 114.015625 35.589844 114.058594 C 35.441406 114.121094 35.335938 114.226562 35.210938 114.308594 C 35.125 114.375 35.042969 114.394531 34.957031 114.480469 C 34.957031 114.480469 34.957031 114.519531 34.914062 114.542969 C 34.808594 114.667969 34.726562 114.792969 34.664062 114.941406 C 34.597656 115.046875 34.535156 115.132812 34.496094 115.238281 C 34.453125 115.339844 34.453125 115.46875 34.429688 115.59375 C 34.410156 115.742188 34.367188 115.886719 34.367188 116.035156 C 34.367188 116.058594 34.367188 116.078125 34.367188 116.097656 L 34.9375 125 C 35 126.113281 35.925781 126.976562 37.039062 126.976562 C 37.082031 126.976562 37.125 126.976562 37.167969 126.976562 C 38.324219 126.914062 39.207031 125.90625 39.125 124.746094 L 38.890625 121.023438 C 49.371094 129.714844 62.25 134.089844 75.148438 134.089844 C 89.6875 134.089844 104.25 128.554688 115.316406 117.464844 C 129.121094 103.664062 134.824219 84.011719 130.59375 64.925781 Z M 130.550781 64.925781 "/></g></g></svg>