<svg xmlns="http://www.w3.org/2000/svg" xmlns:xlink="http://www.w3.org/1999/xlink" width="200" zoomAndPan="magnify" viewBox="0 0 150 157.92" height="200" preserveAspectRatio="xMidYMid meet" version="1.2"><defs><clipPath id="c74298fd70"><path d="M 15.03125 89 L 33 89 L 33 100 L 15.03125 100 Z M 15.03125 89 "/></clipPath><clipPath id="3349577ad3"><path d="M 15.03125 50 L 33 50 L 33 61 L 15.03125 61 Z M 15.03125 50 "/></clipPath><clipPath id="45caac645f"><path d="M 89 117 L 100 117 L 100 134.933594 L 89 134.933594 Z M 89 117 "/></clipPath><clipPath id="405b7565f2"><path d="M 50 117 L 61 117 L 61 134.933594 L 50 134.933594 Z M 50 117 "/></clipPath><clipPath id="440bf5cf20"><path d="M 117 50 L 134.96875 50 L 134.96875 61 L 117 61 Z M 117 50 "/></clipPath><clipPath id="c0238ee43a"><path d="M 117 89 L 134.96875 89 L 134.96875 100 L 117 100 Z M 117 89 "/></clipPath><clipPath id="77871c0c6b"><path d="M 15.03125 15 L 38 15 L 38 38 L 15.03125 38 Z M 15.03125 15 "/></clipPath><clipPath id="6ee51065d2"><path d="M 112 15 L 134.96875 15 L 134.96875 38 L 112 38 Z M 112 15 "/></clipPath></defs><g id="b774fcef41"><path style=" stroke:none;fill-rule:nonzero;fill:#b76e79;fill-opacity:1;" d="M 36.75 36.027344 C 36.296875 36.289062 35.976562 36.734375 35.867188 37.246094 C 35.734375 37.875 23.070312 100.59375 74.351562 119.589844 C 74.5625 119.667969 74.78125 119.703125 75 119.703125 C 75.21875 119.703125 75.4375 119.667969 75.648438 119.589844 C 126.929688 100.59375 114.265625 37.875 114.132812 37.246094 C 114.023438 36.734375 113.703125 36.289062 113.25 36.027344 C 112.800781 35.757812 112.261719 35.695312 111.757812 35.847656 C 111.523438 35.917969 88.417969 42.8125 76.320312 30.71875 C 75.589844 29.988281 74.410156 29.988281 73.679688 30.71875 C 61.582031 42.816406 38.472656 35.921875 38.242188 35.847656 C 37.738281 35.695312 37.199219 35.757812 36.75 36.027344 Z M 39.175781 39.960938 C 45.246094 41.4375 63.332031 44.679688 75 34.582031 C 86.671875 44.679688 104.753906 41.4375 110.824219 39.960938 C 111.554688 44.597656 113.023438 56.945312 110.679688 70.535156 C 106.800781 93.042969 94.796875 108.285156 75 115.847656 C 55.203125 108.285156 43.199219 93.042969 39.320312 70.535156 C 36.976562 56.945312 38.445312 44.597656 39.175781 39.960938 Z M 39.175781 39.960938 "/><path style=" stroke:none;fill-rule:nonzero;fill:#b76e79;fill-opacity:1;" d="M 52.820312 61.773438 L 65.671875 70.339844 L 65.671875 82.246094 L 61.96875 104.476562 C 61.878906 105.015625 62.03125 105.570312 62.386719 105.988281 C 62.738281 106.40625 63.261719 106.648438 63.808594 106.648438 L 71.269531 106.648438 C 72.183594 106.648438 72.960938 105.988281 73.109375 105.089844 L 75 93.746094 L 76.890625 105.089844 C 77.039062 105.988281 77.816406 106.648438 78.730469 106.648438 L 86.191406 106.648438 C 86.738281 106.648438 87.261719 106.40625 87.613281 105.988281 C 87.96875 105.570312 88.121094 105.015625 88.03125 104.476562 L 84.328125 82.246094 L 84.328125 70.339844 L 97.179688 61.773438 C 99.746094 60.058594 100.441406 56.578125 98.730469 54.011719 L 93.339844 45.925781 C 92.871094 45.222656 91.996094 44.921875 91.195312 45.1875 L 85.601562 47.054688 C 85.089844 47.226562 84.675781 47.609375 84.46875 48.109375 C 84.261719 48.609375 84.28125 49.175781 84.523438 49.660156 L 87.417969 55.449219 L 82.019531 58.152344 L 81.421875 58.152344 C 82.066406 57.046875 82.460938 55.785156 82.460938 54.421875 L 82.460938 50.691406 C 82.460938 46.574219 79.113281 43.226562 75 43.226562 C 70.886719 43.226562 67.539062 46.574219 67.539062 50.691406 L 67.539062 54.421875 C 67.539062 55.785156 67.933594 57.046875 68.578125 58.152344 L 67.980469 58.152344 L 62.582031 55.449219 L 65.476562 49.660156 C 65.71875 49.175781 65.738281 48.609375 65.53125 48.109375 C 65.324219 47.609375 64.910156 47.226562 64.398438 47.054688 L 58.804688 45.1875 C 58 44.921875 57.128906 45.226562 56.660156 45.925781 L 51.269531 54.011719 C 49.558594 56.578125 50.253906 60.058594 52.820312 61.773438 Z M 71.269531 54.417969 L 71.269531 50.6875 C 71.269531 48.632812 72.945312 46.957031 75 46.957031 C 77.054688 46.957031 78.730469 48.632812 78.730469 50.6875 L 78.730469 54.417969 C 78.730469 56.476562 77.054688 58.152344 75 58.152344 C 72.945312 58.152344 71.269531 56.476562 71.269531 54.417969 Z M 54.371094 56.082031 L 58.972656 49.179688 L 61.179688 49.914062 L 58.410156 55.449219 C 57.949219 56.371094 58.320312 57.492188 59.242188 57.953125 L 66.703125 61.683594 C 66.964844 61.8125 67.25 61.878906 67.539062 61.878906 L 82.460938 61.878906 C 82.75 61.878906 83.035156 61.8125 83.296875 61.683594 L 90.757812 57.953125 C 91.679688 57.492188 92.050781 56.371094 91.589844 55.449219 L 88.820312 49.914062 L 91.027344 49.179688 L 95.628906 56.082031 C 96.195312 56.9375 95.964844 58.097656 95.109375 58.667969 L 81.425781 67.789062 C 80.90625 68.136719 80.59375 68.71875 80.59375 69.34375 L 80.59375 82.398438 C 80.59375 82.503906 80.605469 82.605469 80.621094 82.707031 L 83.988281 102.917969 L 80.308594 102.917969 L 76.839844 82.09375 C 76.691406 81.195312 75.910156 80.535156 75 80.535156 C 74.085938 80.535156 73.308594 81.191406 73.160156 82.09375 L 69.6875 102.917969 L 66.011719 102.917969 L 69.378906 82.707031 C 69.394531 82.605469 69.402344 82.503906 69.402344 82.398438 L 69.402344 69.34375 C 69.402344 68.71875 69.089844 68.136719 68.574219 67.789062 L 54.890625 58.667969 C 54.03125 58.097656 53.800781 56.9375 54.371094 56.082031 Z M 54.371094 56.082031 "/><path style=" stroke:none;fill-rule:nonzero;fill:#b76e79;fill-opacity:1;" d="M 56.5 30.90625 C 56.800781 31.613281 57.488281 32.035156 58.210938 32.035156 C 58.457031 32.035156 58.707031 31.988281 58.945312 31.882812 C 59.894531 31.480469 60.332031 30.382812 59.925781 29.4375 L 54.332031 16.378906 C 53.925781 15.433594 52.820312 14.992188 51.882812 15.402344 C 50.933594 15.804688 50.496094 16.902344 50.902344 17.851562 Z M 56.5 30.90625 "/><path style=" stroke:none;fill-rule:nonzero;fill:#b76e79;fill-opacity:1;" d="M 91.054688 31.882812 C 91.292969 31.988281 91.542969 32.035156 91.789062 32.035156 C 92.511719 32.035156 93.199219 31.613281 93.503906 30.90625 L 99.097656 17.847656 C 99.503906 16.902344 99.066406 15.804688 98.117188 15.398438 C 97.179688 14.996094 96.074219 15.433594 95.667969 16.378906 L 90.074219 29.433594 C 89.667969 30.382812 90.105469 31.480469 91.054688 31.882812 Z M 91.054688 31.882812 "/><g clip-rule="nonzero" clip-path="url(#c74298fd70)"><path style=" stroke:none;fill-rule:nonzero;fill:#b76e79;fill-opacity:1;" d="M 31.945312 90.992188 C 31.539062 90.042969 30.4375 89.605469 29.5 90.011719 L 16.441406 95.605469 C 15.496094 96.011719 15.054688 97.109375 15.460938 98.054688 C 15.765625 98.761719 16.453125 99.1875 17.175781 99.1875 C 17.421875 99.1875 17.671875 99.136719 17.910156 99.035156 L 30.96875 93.441406 C 31.914062 93.035156 32.351562 91.9375 31.945312 90.992188 Z M 31.945312 90.992188 "/></g><g clip-rule="nonzero" clip-path="url(#3349577ad3)"><path style=" stroke:none;fill-rule:nonzero;fill:#b76e79;fill-opacity:1;" d="M 16.441406 54.269531 L 29.5 59.863281 C 29.738281 59.964844 29.988281 60.015625 30.234375 60.015625 C 30.957031 60.015625 31.644531 59.589844 31.945312 58.882812 C 32.351562 57.9375 31.914062 56.839844 30.96875 56.4375 L 17.910156 50.839844 C 16.972656 50.433594 15.867188 50.871094 15.460938 51.820312 C 15.054688 52.765625 15.496094 53.863281 16.441406 54.269531 Z M 16.441406 54.269531 "/></g><g clip-rule="nonzero" clip-path="url(#45caac645f)"><path style=" stroke:none;fill-rule:nonzero;fill:#b76e79;fill-opacity:1;" d="M 93.5 118.972656 C 93.09375 118.023438 91.992188 117.582031 91.054688 117.992188 C 90.105469 118.398438 89.667969 119.492188 90.074219 120.441406 L 95.667969 133.496094 C 95.972656 134.203125 96.660156 134.628906 97.382812 134.628906 C 97.628906 134.628906 97.878906 134.578125 98.117188 134.476562 C 99.066406 134.070312 99.503906 132.972656 99.097656 132.027344 Z M 93.5 118.972656 "/></g><g clip-rule="nonzero" clip-path="url(#405b7565f2)"><path style=" stroke:none;fill-rule:nonzero;fill:#b76e79;fill-opacity:1;" d="M 58.945312 117.992188 C 58.003906 117.585938 56.90625 118.023438 56.496094 118.96875 L 50.902344 132.027344 C 50.496094 132.972656 50.933594 134.070312 51.882812 134.476562 C 52.121094 134.578125 52.371094 134.628906 52.617188 134.628906 C 53.339844 134.628906 54.027344 134.203125 54.332031 133.496094 L 59.925781 120.441406 C 60.332031 119.492188 59.894531 118.398438 58.945312 117.992188 Z M 58.945312 117.992188 "/></g><g clip-rule="nonzero" clip-path="url(#440bf5cf20)"><path style=" stroke:none;fill-rule:nonzero;fill:#b76e79;fill-opacity:1;" d="M 132.089844 50.839844 L 119.03125 56.4375 C 118.085938 56.839844 117.648438 57.9375 118.054688 58.882812 C 118.355469 59.589844 119.042969 60.015625 119.765625 60.015625 C 120.011719 60.015625 120.261719 59.964844 120.5 59.863281 L 133.558594 54.269531 C 134.503906 53.863281 134.945312 52.769531 134.539062 51.820312 C 134.132812 50.871094 133.027344 50.433594 132.089844 50.84375 Z M 132.089844 50.839844 "/></g><g clip-rule="nonzero" clip-path="url(#c0238ee43a)"><path style=" stroke:none;fill-rule:nonzero;fill:#b76e79;fill-opacity:1;" d="M 133.558594 95.605469 L 120.5 90.011719 C 119.558594 89.605469 118.460938 90.042969 118.054688 90.992188 C 117.648438 91.9375 118.085938 93.035156 119.03125 93.4375 L 132.089844 99.035156 C 132.328125 99.136719 132.578125 99.1875 132.824219 99.1875 C 133.546875 99.1875 134.234375 98.761719 134.539062 98.054688 C 134.945312 97.109375 134.503906 96.011719 133.558594 95.605469 Z M 133.558594 95.605469 "/></g><path style=" stroke:none;fill-rule:nonzero;fill:#b76e79;fill-opacity:1;" d="M 75 28.304688 C 76.03125 28.304688 76.867188 27.46875 76.867188 26.441406 L 76.867188 18.980469 C 76.867188 17.949219 76.03125 17.113281 75 17.113281 C 73.96875 17.113281 73.132812 17.949219 73.132812 18.980469 L 73.132812 26.441406 C 73.132812 27.46875 73.96875 28.304688 75 28.304688 Z M 75 28.304688 "/><path style=" stroke:none;fill-rule:nonzero;fill:#b76e79;fill-opacity:1;" d="M 19.042969 73.074219 C 18.011719 73.074219 17.175781 73.90625 17.175781 74.9375 C 17.175781 75.96875 18.011719 76.804688 19.042969 76.804688 L 26.503906 76.804688 C 27.535156 76.804688 28.367188 75.96875 28.367188 74.9375 C 28.367188 73.90625 27.535156 73.074219 26.503906 73.074219 Z M 19.042969 73.074219 "/><path style=" stroke:none;fill-rule:nonzero;fill:#b76e79;fill-opacity:1;" d="M 75 121.570312 C 73.96875 121.570312 73.132812 122.40625 73.132812 123.433594 L 73.132812 130.898438 C 73.132812 131.925781 73.96875 132.761719 75 132.761719 C 76.03125 132.761719 76.867188 131.925781 76.867188 130.898438 L 76.867188 123.433594 C 76.867188 122.40625 76.03125 121.570312 75 121.570312 Z M 75 121.570312 "/><path style=" stroke:none;fill-rule:nonzero;fill:#b76e79;fill-opacity:1;" d="M 130.957031 76.804688 C 131.988281 76.804688 132.824219 75.96875 132.824219 74.9375 C 132.824219 73.90625 131.988281 73.074219 130.957031 73.074219 L 123.496094 73.074219 C 122.464844 73.074219 121.632812 73.90625 121.632812 74.9375 C 121.632812 75.96875 122.464844 76.804688 123.496094 76.804688 Z M 130.957031 76.804688 "/><g clip-rule="nonzero" clip-path="url(#77871c0c6b)"><path style=" stroke:none;fill-rule:nonzero;fill:#b76e79;fill-opacity:1;" d="M 17.175781 28.304688 L 19.304688 28.304688 C 19.480469 28.984375 19.75 29.617188 20.097656 30.207031 L 18.589844 31.714844 C 17.859375 32.445312 17.859375 33.625 18.589844 34.355469 C 18.953125 34.71875 19.429688 34.902344 19.910156 34.902344 C 20.386719 34.902344 20.863281 34.71875 21.226562 34.355469 L 22.738281 32.84375 C 23.324219 33.191406 23.960938 33.460938 24.636719 33.636719 L 24.636719 35.765625 C 24.636719 36.796875 25.472656 37.632812 26.503906 37.632812 C 27.535156 37.632812 28.367188 36.796875 28.367188 35.765625 L 28.367188 33.636719 C 29.046875 33.460938 29.679688 33.191406 30.269531 32.84375 L 31.777344 34.355469 C 32.140625 34.71875 32.617188 34.902344 33.097656 34.902344 C 33.574219 34.902344 34.050781 34.71875 34.414062 34.355469 C 35.144531 33.625 35.144531 32.445312 34.414062 31.714844 L 32.90625 30.207031 C 33.253906 29.617188 33.523438 28.984375 33.699219 28.304688 L 35.828125 28.304688 C 36.859375 28.304688 37.695312 27.46875 37.695312 26.441406 C 37.695312 25.410156 36.859375 24.574219 35.828125 24.574219 L 33.699219 24.574219 C 33.523438 23.898438 33.253906 23.261719 32.90625 22.675781 L 34.414062 21.164062 C 35.144531 20.4375 35.144531 19.253906 34.414062 18.527344 C 33.6875 17.796875 32.507812 17.796875 31.777344 18.527344 L 30.269531 20.035156 C 29.679688 19.6875 29.042969 19.421875 28.367188 19.246094 L 28.367188 17.113281 C 28.367188 16.085938 27.535156 15.25 26.503906 15.25 C 25.472656 15.25 24.636719 16.085938 24.636719 17.113281 L 24.636719 19.246094 C 23.960938 19.421875 23.324219 19.6875 22.738281 20.035156 L 21.226562 18.527344 C 20.5 17.796875 19.316406 17.796875 18.589844 18.527344 C 17.859375 19.253906 17.859375 20.433594 18.589844 21.164062 L 20.097656 22.671875 C 19.75 23.261719 19.484375 23.898438 19.304688 24.574219 L 17.175781 24.574219 C 16.144531 24.574219 15.3125 25.410156 15.3125 26.441406 C 15.3125 27.46875 16.144531 28.304688 17.175781 28.304688 Z M 26.503906 22.710938 C 28.558594 22.710938 30.234375 24.382812 30.234375 26.441406 C 30.234375 28.496094 28.558594 30.171875 26.503906 30.171875 C 24.445312 30.171875 22.773438 28.496094 22.773438 26.441406 C 22.773438 24.382812 24.445312 22.710938 26.503906 22.710938 Z M 26.503906 22.710938 "/></g><g clip-rule="nonzero" clip-path="url(#6ee51065d2)"><path style=" stroke:none;fill-rule:nonzero;fill:#b76e79;fill-opacity:1;" d="M 114.171875 28.304688 L 116.300781 28.304688 C 116.476562 28.984375 116.746094 29.617188 117.09375 30.207031 L 115.585938 31.714844 C 114.855469 32.445312 114.855469 33.625 115.585938 34.355469 C 115.949219 34.71875 116.425781 34.902344 116.902344 34.902344 C 117.378906 34.902344 117.859375 34.71875 118.222656 34.355469 L 119.730469 32.84375 C 120.320312 33.191406 120.953125 33.460938 121.632812 33.636719 L 121.632812 35.765625 C 121.632812 36.796875 122.464844 37.632812 123.496094 37.632812 C 124.527344 37.632812 125.363281 36.796875 125.363281 35.765625 L 125.363281 33.636719 C 126.039062 33.460938 126.675781 33.191406 127.261719 32.84375 L 128.773438 34.355469 C 129.136719 34.71875 129.613281 34.902344 130.089844 34.902344 C 130.570312 34.902344 131.046875 34.71875 131.410156 34.355469 C 132.136719 33.625 132.136719 32.445312 131.410156 31.714844 L 129.902344 30.207031 C 130.25 29.617188 130.515625 28.984375 130.691406 28.304688 L 132.824219 28.304688 C 133.855469 28.304688 134.6875 27.46875 134.6875 26.441406 C 134.6875 25.410156 133.855469 24.574219 132.824219 24.574219 L 130.691406 24.574219 C 130.515625 23.898438 130.25 23.261719 129.902344 22.675781 L 131.410156 21.164062 C 132.136719 20.4375 132.136719 19.253906 131.410156 18.527344 C 130.679688 17.796875 129.5 17.796875 128.773438 18.527344 L 127.261719 20.035156 C 126.675781 19.6875 126.039062 19.421875 125.363281 19.246094 L 125.363281 17.113281 C 125.363281 16.085938 124.527344 15.25 123.496094 15.25 C 122.464844 15.25 121.632812 16.085938 121.632812 17.113281 L 121.632812 19.246094 C 120.953125 19.421875 120.320312 19.6875 119.730469 20.035156 L 118.222656 18.527344 C 117.492188 17.796875 116.3125 17.796875 115.585938 18.527344 C 114.855469 19.253906 114.855469 20.433594 115.585938 21.164062 L 117.09375 22.671875 C 116.746094 23.261719 116.476562 23.898438 116.300781 24.574219 L 114.171875 24.574219 C 113.140625 24.574219 112.304688 25.410156 112.304688 26.441406 C 112.304688 27.46875 113.140625 28.304688 114.171875 28.304688 Z M 123.496094 22.710938 C 125.554688 22.710938 127.226562 24.382812 127.226562 26.441406 C 127.226562 28.496094 125.554688 30.171875 123.496094 30.171875 C 121.441406 30.171875 119.765625 28.496094 119.765625 26.441406 C 119.765625 24.382812 121.441406 22.710938 123.496094 22.710938 Z M 123.496094 22.710938 "/></g><path style=" stroke:none;fill-rule:nonzero;fill:#b76e79;fill-opacity:1;" d="M 41.425781 114.109375 L 39.292969 114.109375 C 39.117188 113.433594 38.851562 112.796875 38.503906 112.207031 L 40.011719 110.699219 C 40.738281 109.96875 40.738281 108.789062 40.011719 108.0625 C 39.28125 107.332031 38.101562 107.332031 37.375 108.0625 L 35.863281 109.570312 C 35.277344 109.222656 34.640625 108.953125 33.964844 108.777344 L 33.964844 106.648438 C 33.964844 105.617188 33.128906 104.78125 32.097656 104.78125 C 31.066406 104.78125 30.234375 105.617188 30.234375 106.648438 L 30.234375 108.777344 C 29.554688 108.953125 28.921875 109.222656 28.332031 109.570312 L 26.824219 108.0625 C 26.09375 107.332031 24.914062 107.332031 24.1875 108.0625 C 23.457031 108.789062 23.457031 109.96875 24.1875 110.699219 L 25.695312 112.207031 C 25.347656 112.796875 25.078125 113.433594 24.902344 114.109375 L 22.773438 114.109375 C 21.742188 114.109375 20.90625 114.945312 20.90625 115.972656 C 20.90625 117.003906 21.742188 117.839844 22.773438 117.839844 L 24.902344 117.839844 C 25.078125 118.515625 25.347656 119.152344 25.695312 119.742188 L 24.1875 121.25 C 23.457031 121.980469 23.457031 123.160156 24.1875 123.886719 C 24.550781 124.253906 25.027344 124.433594 25.503906 124.433594 C 25.980469 124.433594 26.460938 124.253906 26.824219 123.886719 L 28.332031 122.378906 C 28.921875 122.726562 29.554688 122.996094 30.234375 123.171875 L 30.234375 125.300781 C 30.234375 126.332031 31.066406 127.164062 32.097656 127.164062 C 33.128906 127.164062 33.964844 126.332031 33.964844 125.300781 L 33.964844 123.171875 C 34.640625 122.996094 35.277344 122.726562 35.863281 122.378906 L 37.375 123.886719 C 37.738281 124.253906 38.214844 124.433594 38.691406 124.433594 C 39.171875 124.433594 39.648438 124.253906 40.011719 123.886719 C 40.738281 123.160156 40.738281 121.980469 40.011719 121.25 L 38.503906 119.742188 C 38.851562 119.152344 39.117188 118.515625 39.292969 117.839844 L 41.425781 117.839844 C 42.457031 117.839844 43.289062 117.003906 43.289062 115.972656 C 43.289062 114.945312 42.457031 114.109375 41.425781 114.109375 Z M 32.097656 119.703125 C 30.042969 119.703125 28.367188 118.03125 28.367188 115.972656 C 28.367188 113.917969 30.042969 112.242188 32.097656 112.242188 C 34.15625 112.242188 35.828125 113.917969 35.828125 115.972656 C 35.828125 118.03125 34.15625 119.703125 32.097656 119.703125 Z M 32.097656 119.703125 "/><path style=" stroke:none;fill-rule:nonzero;fill:#b76e79;fill-opacity:1;" d="M 127.226562 114.109375 L 125.097656 114.109375 C 124.921875 113.433594 124.652344 112.796875 124.304688 112.207031 L 125.816406 110.699219 C 126.542969 109.96875 126.542969 108.789062 125.816406 108.0625 C 125.085938 107.332031 123.90625 107.332031 123.175781 108.0625 L 121.667969 109.570312 C 121.078125 109.222656 120.445312 108.953125 119.765625 108.777344 L 119.765625 106.648438 C 119.765625 105.617188 118.933594 104.78125 117.902344 104.78125 C 116.871094 104.78125 116.035156 105.617188 116.035156 106.648438 L 116.035156 108.777344 C 115.359375 108.953125 114.722656 109.222656 114.136719 109.570312 L 112.625 108.0625 C 111.898438 107.332031 110.71875 107.332031 109.988281 108.0625 C 109.261719 108.789062 109.261719 109.96875 109.988281 110.699219 L 111.496094 112.207031 C 111.148438 112.796875 110.882812 113.433594 110.707031 114.109375 L 108.574219 114.109375 C 107.542969 114.109375 106.710938 114.945312 106.710938 115.972656 C 106.710938 117.003906 107.542969 117.839844 108.574219 117.839844 L 110.707031 117.839844 C 110.882812 118.515625 111.148438 119.152344 111.496094 119.742188 L 109.988281 121.25 C 109.261719 121.980469 109.261719 123.160156 109.988281 123.886719 C 110.351562 124.253906 110.832031 124.433594 111.308594 124.433594 C 111.785156 124.433594 112.261719 124.253906 112.625 123.886719 L 114.136719 122.378906 C 114.722656 122.726562 115.359375 122.996094 116.035156 123.171875 L 116.035156 125.300781 C 116.035156 126.332031 116.871094 127.164062 117.902344 127.164062 C 118.933594 127.164062 119.765625 126.332031 119.765625 125.300781 L 119.765625 123.171875 C 120.445312 122.996094 121.078125 122.726562 121.667969 122.378906 L 123.175781 123.886719 C 123.542969 124.253906 124.019531 124.433594 124.496094 124.433594 C 124.972656 124.433594 125.449219 124.253906 125.816406 123.886719 C 126.542969 123.160156 126.542969 121.980469 125.816406 121.25 L 124.304688 119.742188 C 124.652344 119.152344 124.921875 118.515625 125.097656 117.839844 L 127.226562 117.839844 C 128.257812 117.839844 129.09375 117.003906 129.09375 115.972656 C 129.09375 114.945312 128.257812 114.109375 127.226562 114.109375 Z M 117.902344 119.703125 C 115.84375 119.703125 114.171875 118.03125 114.171875 115.972656 C 114.171875 113.917969 115.84375 112.242188 117.902344 112.242188 C 119.957031 112.242188 121.632812 113.917969 121.632812 115.972656 C 121.632812 118.03125 119.957031 119.703125 117.902344 119.703125 Z M 117.902344 119.703125 "/></g></svg>