<?xml version="1.0" encoding="UTF-8" standalone="no" ?>
<!DOCTYPE svg PUBLIC "-//W3C//DTD SVG 1.1//EN" "http://www.w3.org/Graphics/SVG/1.1/DTD/svg11.dtd">
<svg xmlns="http://www.w3.org/2000/svg" xmlns:xlink="http://www.w3.org/1999/xlink" version="1.1" width="1080" height="1080" viewBox="0 0 1080 1080" xml:space="preserve">
<desc>Created with Fabric.js 5.2.4</desc>
<defs>
</defs>
<rect x="0" y="0" width="100%" height="100%" fill="transparent"></rect>
<g transform="matrix(1 0 0 1 540 540)" id="3b45d088-ba49-4ae6-8fa8-408237b9b28a"  >
</g>
<g transform="matrix(1 0 0 1 540 540)" id="9b71a9c7-ae34-4ddd-b64a-81f754555b3f"  >
<rect style="stroke: none; stroke-width: 1; stroke-dasharray: none; stroke-linecap: butt; stroke-dashoffset: 0; stroke-linejoin: miter; stroke-miterlimit: 4; fill: rgb(255,255,255); fill-rule: nonzero; opacity: 1; visibility: hidden;" vector-effect="non-scaling-stroke"  x="-540" y="-540" rx="0" ry="0" width="1080" height="1080" />
</g>
<g transform="matrix(1 0 0 1 540 540.01)"  >
<path style="stroke: none; stroke-width: 1; stroke-dasharray: none; stroke-linecap: butt; stroke-dashoffset: 0; stroke-linejoin: miter; stroke-miterlimit: 4; fill: rgb(255,255,255); fill-opacity: 0; fill-rule: nonzero; opacity: 1;" vector-effect="non-scaling-stroke"  transform=" translate(-500, -500)" d="M 971.2 297.5 C 971.2 228.4 988.6 134.8 944.2 76.6 C 896.2 13.799999999999997 808.6 28.699999999999996 739.3000000000001 28.699999999999996 L 330.7 28.699999999999996 L 201.8 28.699999999999996 C 180.5 28.699999999999996 156.4 25.599999999999994 135.5 29.899999999999995 C 80.2 41.5 34.4 84.8 28.8 142.9 C 23 203 28.8 266.6 28.8 327 L 28.8 702.5 C 28.8 771.6 11.400000000000002 865.2 55.8 923.4 C 103.8 986.1999999999999 191.39999999999998 971.3 260.7 971.3 L 669.3 971.3 L 798.0999999999999 971.3 C 819.3999999999999 971.3 843.4999999999999 974.4 864.3999999999999 970.0999999999999 C 919.7999999999998 958.5999999999999 965.4999999999999 915.3999999999999 971.1999999999998 857.1999999999999 C 976.9999999999998 797.0999999999999 971.1999999999998 733.4999999999999 971.1999999999998 673.0999999999999 L 971.1999999999998 297.5 z" stroke-linecap="round" />
</g>
<g transform="matrix(NaN NaN NaN NaN 0 0)"  >
<g style=""   >
</g>
</g>
<g transform="matrix(NaN NaN NaN NaN 0 0)"  >
<g style=""   >
</g>
</g>
<g transform="matrix(NaN NaN NaN NaN 0 0)"  >
<g style=""   >
</g>
</g>
<g transform="matrix(NaN NaN NaN NaN 0 0)"  >
<g style=""   >
</g>
</g>
<g transform="matrix(NaN NaN NaN NaN 0 0)"  >
<g style=""   >
</g>
</g>
<g transform="matrix(28.7 0 0 28.7 540 540)" id="14362010-9b52-4491-a680-4550e3e0f6b9"  >
<path style="stroke: rgb(0,0,0); stroke-width: 0; stroke-dasharray: none; stroke-linecap: butt; stroke-dashoffset: 0; stroke-linejoin: miter; stroke-miterlimit: 4; fill: rgb(183,110,121); fill-rule: nonzero; opacity: 1;" vector-effect="non-scaling-stroke"  transform=" translate(-12, -12)" d="M 22.405 9.879 C 22.407 9.895 22.415000000000003 9.899 22.475 9.898 L 23.200000000000003 9.898 C 23.442553641774808 9.898745878719184 23.672246472575758 9.788996426865149 23.824053893381656 9.59982102555318 C 23.975861314187558 9.41064562424121 24.03325972650649 9.16263521928432 23.980000000000004 8.926 C 23.89193798241893 8.520755251652403 23.506840595443233 8.251535585192016 23.096000000000004 8.308 C 22.69795330030513 8.359998697107688 22.40112289361823 8.700581562583698 22.404000000000003 9.102 C 22.404000000000003 9.203000000000001 22.402000000000005 9.768 22.405000000000005 9.879 z M 10.896 14.687 C 10.693000000000001 14.687999999999999 9.543000000000001 14.690999999999999 9.211 14.69 C 8.950702390555021 14.68768795828013 8.692323403531873 14.645186976080499 8.445 14.564 C 8.432899986069973 14.560428512984204 8.420035000650978 14.566432172846401 8.415000000000001 14.578 L 7.7 16.127 C 7.694627360968682 16.138652360095186 7.698948550777708 16.152480167484068 7.71 16.159 C 7.821 16.218999999999998 8.046 16.282999999999998 8.205 16.282999999999998 C 8.865 16.293 9.525 16.284999999999997 10.186 16.282999999999998 C 10.196 16.282999999999998 10.206 16.276999999999997 10.209 16.267999999999997 L 10.921 14.722999999999997 C 10.92494218615906 14.71499921067509 10.924323220490004 14.70550415378786 10.919375697052528 14.698082868631644 C 10.914428173615052 14.69066158347543 10.905901569438015 14.686438285593521 10.897 14.686999999999998 z M 0.477 9.91 C 0.40599999999999997 9.91 0.40099999999999997 9.912 0.40099999999999997 9.92 C 0.39637893203250485 9.946489862901997 0.39304170037661146 9.973187716149143 0.39099999999999985 10 C 0.36399999999999993 10.397 0.353 10.495 0.15699999999999995 13.06 C 0.14499999999999993 13.3 0.12299999999999994 13.449 0.021999999999999936 13.667 C -0.0040000000000000625 13.724 -0.011000000000000065 13.709 0.024999999999999935 13.779 C 0.07099999999999994 13.871 0.706 15.302 0.8119999999999999 15.519 C 0.82 15.534 0.823 15.539 0.829 15.539 C 0.837 15.539 0.862 15.513 0.876 15.495 C 1.023 15.308 1.1440000000000001 15.104 1.2469999999999999 14.889 C 1.553 14.254 1.6869999999999998 13.564 1.7329999999999999 13.183 C 1.7469999999999999 13.073 1.7539999999999998 12.963 1.763 12.853 L 1.9669999999999999 10.237 L 1.9889999999999999 9.944 C 1.9919999999999998 9.915000000000001 1.9889999999999999 9.911000000000001 1.9589999999999999 9.91 z M 7.680000000000001 13.667 C 7.590926627494425 13.477050536085322 7.544832377735726 13.269797131614729 7.545000000000001 13.060000000000002 C 7.541000000000001 12.976 7.514000000000001 12.67 7.3100000000000005 10 C 7.309227968507215 9.972414862114357 7.305880083459004 9.94496220471903 7.300000000000001 9.918 C 7.296000000000001 9.907 7.248000000000001 9.91 7.224000000000001 9.91 L 5.7440000000000015 9.91 C 5.714000000000001 9.911 5.710000000000002 9.915000000000001 5.714000000000001 9.944 L 5.735000000000001 10.237 C 5.811000000000001 11.219 5.888000000000001 12.201 5.968000000000001 13.183 C 6.018000000000001 13.583 6.154000000000001 14.268 6.455000000000001 14.889 C 6.558000000000001 15.104 6.678000000000001 15.308 6.825000000000001 15.495 C 6.840000000000001 15.513 6.862000000000001 15.546 6.873000000000001 15.543999999999999 C 6.893000000000001 15.540999999999999 7.615000000000001 13.902 7.677000000000001 13.778999999999998 C 7.713000000000001 13.708999999999998 7.707000000000002 13.723999999999998 7.6800000000000015 13.666999999999998 z M 11.541 12.754 L 10.669 12.754 C 10.625969202652765 12.754421244407506 10.585699179659983 12.732852428135587 10.562204073376236 12.696799592631217 C 10.53870896709249 12.660746757126846 10.535238345522867 12.6151963084668 10.553 12.575999999999999 L 11.731000000000002 9.950999999999999 C 11.734379425002988 9.943256904705208 11.733619518035466 9.934330803438753 11.728979824871864 9.92727040079849 C 11.724340131708262 9.920209998158226 11.716448382683406 9.915970535958019 11.708000000000002 9.915999999999999 L 10.390000000000002 9.912999999999998 C 10.339423668359364 9.913209513034401 10.292242269144674 9.887577479939466 10.264892499205716 9.845033393367753 C 10.237542729266758 9.80248930679604 10.233812002081798 9.748924698824851 10.255000000000003 9.702999999999998 L 11.131000000000002 7.748999999999998 C 11.134379425002988 7.7412569047052076 11.133619518035466 7.732330803438752 11.128979824871864 7.725270400798489 C 11.124340131708262 7.718209998158225 11.116448382683407 7.713970535958018 11.108000000000002 7.713999999999998 L 9.548000000000002 7.713999999999998 C 9.538000000000002 7.713999999999998 9.528000000000002 7.719999999999998 9.524000000000003 7.728999999999997 L 8.598000000000003 9.796999999999997 C 8.513000000000002 9.965999999999998 8.284000000000002 10.430999999999997 8.199000000000002 10.734999999999998 C 8.180845711161307 10.79693489543557 8.174069485793197 10.861647847701024 8.179000000000002 10.925999999999998 C 8.18605208529187 11.083019620830704 8.272788681265379 11.22556933073499 8.409000000000002 11.303999999999998 C 8.550265403855919 11.380761560537225 8.708231950073205 11.421626819232566 8.869000000000003 11.422999999999998 L 9.459000000000003 11.422999999999998 C 9.500000000000004 11.422999999999998 8.771000000000003 12.904999999999998 8.625000000000004 13.394999999999998 C 8.607935704704873 13.45068033575251 8.600164902755422 13.508792419896245 8.602000000000004 13.566999999999998 C 8.603147476612271 13.730935117135475 8.690534727820289 13.882153056182394 8.832000000000004 13.964999999999998 C 8.982000000000005 14.056999999999999 9.174000000000005 14.084999999999997 9.307000000000004 14.084999999999997 L 10.967000000000004 14.083999999999998 C 10.977000000000004 14.083999999999998 10.987000000000004 14.077999999999998 10.990000000000004 14.068999999999997 L 11.565000000000003 12.788999999999998 C 11.568461368043643 12.781091722549489 11.567597864440447 12.771957243289808 11.562715879831266 12.764837682401419 C 11.557833895222085 12.757718121513028 11.549624283163345 12.75362097376572 11.541000000000004 12.753999999999998 z M 4.611000000000001 7.816999999999999 L 3.1 7.816999999999999 C 3.0909955715198363 7.816431115457666 3.0821693914179598 7.819689878119828 3.0756951049018286 7.825973744444307 C 3.069220818385698 7.832257610768788 3.0657000979043096 7.840982604555089 3.0660000000000003 7.85 C 3.0660000000000003 8.898 3.0560000000000005 10.645 3.0560000000000005 14.678999999999998 C 3.0560000000000005 14.966999999999999 2.7870000000000004 14.940999999999999 2.7760000000000007 14.940999999999999 L 2.0360000000000005 14.940999999999999 C 1.9960000000000004 14.941999999999998 1.9920000000000004 14.944999999999999 1.9960000000000004 14.988 C 1.9970000000000003 15.025 2.4610000000000003 16.052 2.5510000000000006 16.250999999999998 C 2.5610000000000004 16.270999999999997 2.5810000000000004 16.284 2.6020000000000008 16.284 C 2.759000000000001 16.287 3.3690000000000007 16.293 3.540000000000001 16.27 C 3.693000000000001 16.25 3.8400000000000007 16.21 3.978000000000001 16.137999999999998 C 4.278000000000001 15.981999999999998 4.468000000000001 15.718999999999998 4.573000000000001 15.372999999999998 C 4.625000000000001 15.200999999999997 4.6480000000000015 15.019999999999998 4.6480000000000015 14.839999999999998 C 4.650000000000001 12.509999999999998 4.6480000000000015 10.179999999999998 4.641000000000002 7.848999999999998 C 4.641000000000002 7.840513072325133 4.6376285811083084 7.832373747112366 4.631627416997971 7.826372583002029 C 4.625626252887634 7.820371418891692 4.617486927674867 7.816999999999998 4.609000000000002 7.816999999999998 z M 16.395000000000003 14.713 C 16.395000000000003 14.699 16.385 14.691999999999998 16.371000000000002 14.690999999999999 L 14.906000000000002 14.690999999999999 C 14.858000000000002 14.69 14.857000000000003 14.688999999999998 14.856000000000002 14.642 L 14.856000000000002 9.982 C 14.856000000000002 9.91 14.851 9.911999999999999 14.926000000000002 9.911999999999999 L 15.789000000000001 9.911999999999999 C 15.869000000000002 9.911999999999999 15.864 9.915999999999999 15.864 9.838 L 15.864 8.393 C 15.864 8.311 15.870000000000001 8.317 15.784 8.317 L 12.284 8.317 C 12.22 8.317 12.209000000000001 8.311 12.209000000000001 8.39 L 12.209000000000001 9.835 C 12.209000000000001 9.918000000000001 12.203000000000001 9.912 12.289000000000001 9.912 L 13.143 9.912 C 13.218 9.912 13.213000000000001 9.908000000000001 13.213000000000001 9.982000000000001 L 13.213000000000001 14.606000000000002 C 13.213000000000001 14.701000000000002 13.221 14.690000000000001 13.128 14.690000000000001 C 12.758000000000001 14.690000000000001 12.018 14.688 11.824 14.690000000000001 C 11.776 14.691 11.764 14.72 11.764 14.72 L 11.067 16.239 C 11.067 16.239 11.053 16.264 11.059000000000001 16.275000000000002 C 11.065000000000001 16.285000000000004 11.072000000000001 16.283 11.117 16.283 C 12.865 16.286 14.612000000000002 16.285 16.36 16.285 C 16.39 16.284 16.394 16.279 16.395 16.252 L 16.395 14.713 z M 20.572000000000003 11.283 C 20.572000000000003 11.296 20.565 11.306 20.552000000000003 11.306999999999999 C 20.206000000000003 11.312999999999999 19.860000000000003 11.310999999999998 19.515000000000004 11.310999999999998 C 19.501000000000005 11.308999999999997 19.493000000000006 11.300999999999998 19.493000000000006 11.286999999999999 C 19.488000000000007 10.853 19.486000000000004 10.418 19.483000000000004 9.983999999999998 C 19.483000000000004 9.911999999999999 19.477000000000004 9.912999999999998 19.553000000000004 9.913999999999998 L 20.286000000000005 9.910999999999998 C 20.327000000000005 9.910999999999998 20.367000000000004 9.912999999999998 20.406000000000006 9.925999999999998 C 20.499000000000006 9.950999999999999 20.566000000000006 10.032999999999998 20.571000000000005 10.129999999999999 C 20.577000000000005 10.560999999999998 20.573000000000004 11.283 20.572000000000006 11.283 z M 23.242000000000004 11.527 C 22.969267360961016 11.384466879584371 22.666712890700257 11.308399957276457 22.359000000000005 11.305 L 22.179000000000006 11.305 C 22.139000000000006 11.304 22.139000000000006 11.302 22.137000000000004 11.265 L 22.137000000000004 10.21 C 22.137000000000004 10.078000000000001 22.130000000000003 9.947000000000001 22.112000000000005 9.816 C 22.08817978873023 9.632595126932712 22.036589267139615 9.453882862599206 21.959000000000007 9.286000000000001 C 21.817196544910548 8.981566060091895 21.579345609752373 8.732121209335167 21.282000000000007 8.576 C 20.974330139139745 8.410666244351642 20.63125456152328 8.322152745326594 20.282000000000007 8.318000000000001 C 20.12900000000001 8.315000000000001 19.715000000000007 8.318000000000001 19.56200000000001 8.318000000000001 C 19.492000000000008 8.318000000000001 19.494000000000007 8.322000000000001 19.494000000000007 8.253000000000002 L 19.494000000000007 7.76 C 19.494000000000007 7.729 19.484000000000005 7.718999999999999 19.448000000000008 7.721 L 17.93 7.721 C 17.93 7.721 17.914 7.721 17.907 7.728 C 17.901 7.734 17.899 7.739999999999999 17.899 7.7509999999999994 L 17.899 8.296999999999999 C 17.891000000000002 8.332999999999998 17.842000000000002 8.312 17.817 8.318999999999999 L 16.867 8.318999999999999 C 16.845000000000002 8.321 16.839000000000002 8.326999999999998 16.837 8.350999999999999 L 16.837 9.831999999999999 C 16.837 9.921999999999999 16.833 9.914 16.919 9.914 L 17.832 9.914 C 17.914 9.914 17.904 10.042 17.904 10.042 L 17.904 11.19 C 17.904 11.19 17.907 11.307 17.844 11.307 L 16.362000000000002 11.307 C 16.294 11.307 16.302000000000003 11.389000000000001 16.302000000000003 11.389000000000001 L 16.302000000000003 12.834000000000001 C 16.302000000000003 12.834000000000001 16.292 12.902000000000001 16.366000000000003 12.902000000000001 L 17.823000000000004 12.902000000000001 C 17.905000000000005 12.902000000000001 17.899000000000004 12.896 17.899000000000004 12.981000000000002 L 17.899000000000004 16.206000000000003 C 17.899000000000004 16.294000000000004 17.892000000000003 16.287000000000003 17.981000000000005 16.287000000000003 L 19.411000000000005 16.287000000000003 C 19.501000000000005 16.287000000000003 19.493000000000006 16.294000000000004 19.493000000000006 16.207000000000004 L 19.493000000000006 12.937000000000005 C 19.493000000000006 12.908000000000005 19.499000000000006 12.902000000000005 19.526000000000007 12.902000000000005 L 21.849000000000007 12.899000000000004 C 21.947000000000006 12.899000000000004 22.040000000000006 12.919000000000004 22.12900000000001 12.960000000000004 C 22.291100176074995 13.031569161064416 22.397680236122046 13.189883337849635 22.40300000000001 13.367000000000004 C 22.41100000000001 13.762000000000004 22.40600000000001 14.157000000000004 22.40600000000001 14.552000000000005 C 22.40600000000001 14.811000000000005 22.29900000000001 14.919000000000004 22.07600000000001 14.919000000000004 L 20.85800000000001 14.919000000000004 C 20.83500000000001 14.921000000000005 20.82900000000001 14.927000000000003 20.830000000000013 14.952000000000004 C 21.014000000000014 15.389000000000003 21.20400000000001 15.823000000000004 21.400000000000013 16.255000000000003 C 21.407264169299047 16.270602874160513 21.42279170883737 16.280695774860423 21.440000000000012 16.281000000000002 C 21.610000000000014 16.286 21.780000000000012 16.283 21.950000000000014 16.284000000000002 C 22.100000000000012 16.282000000000004 22.467000000000013 16.288000000000004 22.616000000000014 16.274 C 22.75420428608535 16.262998040062868 22.89091793712655 16.23786685420971 23.024000000000015 16.199 C 23.614000000000015 16.019000000000002 23.999000000000017 15.501000000000001 24.000000000000014 14.886000000000001 L 24.000000000000014 12.905000000000001 C 24.000000000000014 12.777000000000001 23.990000000000013 12.651000000000002 23.966000000000015 12.525 C 23.966000000000015 12.603 23.937000000000015 11.884 23.242000000000015 11.527000000000001 z" stroke-linecap="round" />
</g>
<g transform="matrix(NaN NaN NaN NaN 0 0)"  >
<g style=""   >
</g>
</g>
</svg>